<svg width="80" height="80" xmlns="http://www.w3.org/2000/svg">
  <rect width="80" height="80" fill="none"/>
  <!-- Horizontal lines -->
  <line x1="0" y1="20" x2="80" y2="20" stroke="white" stroke-width="0.5" stroke-opacity="0.2"/>
  <line x1="0" y1="40" x2="80" y2="40" stroke="white" stroke-width="0.5" stroke-opacity="0.2"/>  
  <line x1="0" y1="60" x2="80" y2="60" stroke="white" stroke-width="0.5" stroke-opacity="0.2"/>
  
  <!-- Vertical lines -->
  <line x1="20" y1="0" x2="20" y2="80" stroke="white" stroke-width="0.5" stroke-opacity="0.2"/>
  <line x1="40" y1="0" x2="40" y2="80" stroke="white" stroke-width="0.5" stroke-opacity="0.2"/>
  <line x1="60" y1="0" x2="60" y2="80" stroke="white" stroke-width="0.5" stroke-opacity="0.2"/>
  
  <!-- Circuit nodes -->
  <circle cx="20" cy="20" r="2" fill="white" fill-opacity="0.3"/>
  <circle cx="60" cy="20" r="2" fill="white" fill-opacity="0.3"/>
  <circle cx="20" cy="60" r="2" fill="white" fill-opacity="0.3"/>
  <circle cx="60" cy="60" r="2" fill="white" fill-opacity="0.3"/>
  <circle cx="40" cy="40" r="3" fill="white" fill-opacity="0.3"/>
  
  <!-- Circuit connections -->
  <path d="M20,20 C30,20 30,40 40,40" stroke="white" stroke-width="1" stroke-opacity="0.2" fill="none"/>
  <path d="M40,40 C50,40 50,20 60,20" stroke="white" stroke-width="1" stroke-opacity="0.2" fill="none"/>
  <path d="M40,40 C40,50 60,50 60,60" stroke="white" stroke-width="1" stroke-opacity="0.2" fill="none"/>
  <path d="M40,40 C30,40 20,50 20,60" stroke="white" stroke-width="1" stroke-opacity="0.2" fill="none"/>
</svg> 